<svg xmlns="http://www.w3.org/2000/svg" width="28" height="28" viewBox="0 0 28 28">
  <g id="icons8_instagram" transform="translate(-1 -1)">
    <path id="Path_22" data-name="Path 22" d="M22.869,28.763a5.9,5.9,0,0,0,5.895-5.895V7.395A5.9,5.9,0,0,0,22.869,1.5H7.395A5.9,5.9,0,0,0,1.5,7.395V22.869a5.9,5.9,0,0,0,5.895,5.895Z" transform="translate(-0.132 -0.132)" fill="#8585cc"/>
    <path id="Path_23" data-name="Path 23" d="M2.9,3.718A5.868,5.868,0,0,0,1.5,7.526V23a5.9,5.9,0,0,0,5.895,5.895H22.869A5.9,5.9,0,0,0,28.763,23V7.526a5.885,5.885,0,0,0-.1-1.082A30.092,30.092,0,0,0,2.9,3.718Z" transform="translate(-0.132 -0.263)" fill="#8d8dd8"/>
    <path id="Path_24" data-name="Path 24" d="M1.5,8.508c0,.024,0,.047,0,.071V24.053a5.9,5.9,0,0,0,5.895,5.895H22.869a5.9,5.9,0,0,0,5.895-5.895V11.082A27.236,27.236,0,0,0,1.5,8.508Z" transform="translate(-0.132 -1.316)" fill="#bd82f4"/>
    <path id="Path_25" data-name="Path 25" d="M1.5,12.859V25.105A5.9,5.9,0,0,0,7.395,31H22.869a5.9,5.9,0,0,0,5.895-5.895V15.881A24.264,24.264,0,0,0,1.5,12.859Z" transform="translate(-0.132 -2.368)" fill="#ed73f4"/>
    <path id="Path_26" data-name="Path 26" d="M12.921,14A21.251,21.251,0,0,0,1.5,17.322v8.836a5.9,5.9,0,0,0,5.895,5.895H22.869a5.9,5.9,0,0,0,5.895-5.895v-5.11A21.3,21.3,0,0,0,12.921,14Z" transform="translate(-0.132 -3.421)" fill="#f97dcd"/>
    <path id="Path_27" data-name="Path 27" d="M12.921,18A18.323,18.323,0,0,0,1.5,21.987v5.224a5.9,5.9,0,0,0,5.895,5.895H22.869a5.9,5.9,0,0,0,5.895-5.895v-.175A18.4,18.4,0,0,0,12.921,18Z" transform="translate(-0.132 -4.474)" fill="#fc9c95"/>
    <path id="Path_28" data-name="Path 28" d="M12.921,22A15.416,15.416,0,0,0,1.5,27.054v1.209a5.9,5.9,0,0,0,5.895,5.895H22.869a5.883,5.883,0,0,0,4.521-2.115A15.46,15.46,0,0,0,12.921,22Z" transform="translate(-0.132 -5.526)" fill="#ffac99"/>
    <path id="Path_29" data-name="Path 29" d="M23.114,35.211a5.874,5.874,0,0,0,2-.357A12.5,12.5,0,0,0,2.434,32.078a5.892,5.892,0,0,0,5.207,3.133Z" transform="translate(-0.377 -6.579)" fill="#ffc49c"/>
    <path id="Path_30" data-name="Path 30" d="M13.925,30a9.576,9.576,0,0,0-8.609,5.386,5.855,5.855,0,0,0,3.083.878H22.9A9.574,9.574,0,0,0,13.925,30Z" transform="translate(-1.136 -7.631)" fill="#ffde8d"/>
    <path id="Path_31" data-name="Path 31" d="M14.96,34a6.608,6.608,0,0,0-5.713,3.306c.063,0,.124.01.186.01H20.678A6.605,6.605,0,0,0,14.96,34Z" transform="translate(-2.17 -8.684)" fill="#fff69f"/>
    <path id="Path_32" data-name="Path 32" d="M23.105,1.737a5.164,5.164,0,0,1,5.158,5.158V23.105a5.164,5.164,0,0,1-5.158,5.158H6.895a5.164,5.164,0,0,1-5.158-5.158V6.895A5.164,5.164,0,0,1,6.895,1.737H23.105m0-.737H6.895A5.9,5.9,0,0,0,1,6.895V23.105A5.9,5.9,0,0,0,6.895,29H23.105A5.9,5.9,0,0,0,29,23.105V6.895A5.9,5.9,0,0,0,23.105,1Z" fill="#8b75a1"/>
    <path id="Path_33" data-name="Path 33" d="M27.105,11a1.105,1.105,0,1,0,1.105,1.105A1.105,1.105,0,0,0,27.105,11Z" transform="translate(-6.579 -2.632)" fill="#fff"/>
    <path id="Path_34" data-name="Path 34" d="M18.421,14a4.421,4.421,0,1,0,4.421,4.421A4.421,4.421,0,0,0,18.421,14Z" transform="translate(-3.421 -3.421)" fill="none" stroke="#fff" stroke-width="2"/>
    <path id="Path_35" data-name="Path 35" d="M26.158,12.526A5.526,5.526,0,0,0,20.632,7H12.526A5.526,5.526,0,0,0,7,12.526v8.105a5.526,5.526,0,0,0,5.526,5.526h8.105a5.526,5.526,0,0,0,5.526-5.526Z" transform="translate(-1.579 -1.579)" fill="none" stroke="#fff" stroke-width="2"/>
  </g>
</svg>
