<svg xmlns="http://www.w3.org/2000/svg" width="28.011" height="22.765" viewBox="0 0 28.011 22.765">
  <g id="icons8_twitter" transform="translate(-2 -9.117)">
    <path id="Path_43" data-name="Path 43" d="M12.12,32.014a16.105,16.105,0,0,1-8.044-2.148q.3.015.606.015a11.646,11.646,0,0,0,7.251-2.5l.408-.32-.518-.01a5.565,5.565,0,0,1-5.1-3.576,5.954,5.954,0,0,0,2.368-.153l.751-.205-.764-.153a5.576,5.576,0,0,1-4.457-5.22,5.95,5.95,0,0,0,2.408.6l.644.021L7.141,18a5.572,5.572,0,0,1-1.85-7.193,16.554,16.554,0,0,0,11.8,5.862l.244.012-.055-.238a5.655,5.655,0,0,1-.143-1.268,5.565,5.565,0,0,1,9.623-3.806l.07.074.1-.02a11.649,11.649,0,0,0,3.27-1.169,5.354,5.354,0,0,1-2.211,2.587l-.147.088.137.269.138,0a11.265,11.265,0,0,0,2.684-.665,11.441,11.441,0,0,1-2.457,2.412l-.08.058,0,.1c.01.244.016.489.016.735A16.01,16.01,0,0,1,12.12,32.014Z" transform="translate(-1.311 -0.316)" fill="#c2e8ff"/>
    <path id="Path_44" data-name="Path 44" d="M21.393,9.486a5.4,5.4,0,0,1,3.926,1.7l.14.149.2-.039A11.846,11.846,0,0,0,28.5,10.35a5.133,5.133,0,0,1-1.912,2.021l-.3.177.157.307.01.02.117.229.255-.031a11.484,11.484,0,0,0,2.119-.463,11.28,11.28,0,0,1-2.023,1.878l-.161.116.008.2c.011.249.016.494.016.728a16.542,16.542,0,0,1-4.119,10.78,15.3,15.3,0,0,1-11.863,5.2,15.917,15.917,0,0,1-7.294-1.765,11.82,11.82,0,0,0,7.22-2.538l.816-.639-1.036-.019a5.38,5.38,0,0,1-4.809-3.174q.258.022.515.022a6.108,6.108,0,0,0,1.612-.215l1.5-.411-1.526-.306A5.392,5.392,0,0,1,3.52,17.725a6.141,6.141,0,0,0,2.2.485L7,18.252l-1.072-.716a5.388,5.388,0,0,1-1.91-6.707,16.74,16.74,0,0,0,11.753,5.714l.487.024-.109-.475a5.467,5.467,0,0,1-.139-1.227,5.386,5.386,0,0,1,5.379-5.379m0-.369a5.748,5.748,0,0,0-5.747,5.747,5.824,5.824,0,0,0,.148,1.31A16.316,16.316,0,0,1,3.949,10.169a5.756,5.756,0,0,0,1.779,7.673,5.725,5.725,0,0,1-2.6-.719v.072a5.75,5.75,0,0,0,4.61,5.635,5.76,5.76,0,0,1-2.6.1,5.755,5.755,0,0,0,5.369,3.992A11.6,11.6,0,0,1,2,29.3a16.266,16.266,0,0,0,8.81,2.582c10.571,0,16.351-8.757,16.351-16.352,0-.248-.006-.5-.016-.743a11.7,11.7,0,0,0,2.867-2.975,11.18,11.18,0,0,1-3.225.9l-.01-.02a5.589,5.589,0,0,0,2.461-3.151,11.512,11.512,0,0,1-3.65,1.395,5.739,5.739,0,0,0-4.195-1.815Z" fill="#7496c4"/>
  </g>
</svg>
