<svg xmlns="http://www.w3.org/2000/svg" width="32" height="32" viewBox="0 0 32 32">
  <g id="icons8_website" transform="translate(-4 -4)">
    <path id="Path_45" data-name="Path 45" d="M21.92,24.9l.727-5.9H24.8L23.1,29H21.2L20,23.062,18.8,29H16.9L15.2,19h2.156l.713,6.035L19.216,19h1.567Zm-11.2,0,.727-5.9H13.6L11.9,29H10L8.8,23.062,7.6,29H5.7L4,19H6.156l.713,6.035L8.016,19H9.583Zm22.4,0,.727-5.9H36L34.3,29H32.4l-1.2-5.938L30,29H28.1L26.4,19h2.156l.713,6.035L30.416,19h1.567Z" transform="translate(0 -4)" fill="#3f51b5"/>
    <path id="Path_46" data-name="Path 46" d="M8.5,12h23v2H8.5Z" transform="translate(0 -1.684)" fill="#2196f3"/>
    <path id="Path_47" data-name="Path 47" d="M8.5,12h23v1.333H8.5Zm0,14.667h23V28H8.5Z" fill="#2196f3"/>
    <path id="Path_48" data-name="Path 48" d="M6.969,14.4a14.309,14.309,0,0,1,9.012-8.2,17.846,17.846,0,0,0-3.36,8.2h1.61c.875-4.575,2.767-8,4.982-8.669V14.4h1.572V5.731C23,6.4,24.893,9.825,25.769,14.4h1.61a17.846,17.846,0,0,0-3.36-8.2,14.309,14.309,0,0,1,9.012,8.2h1.68A15.75,15.75,0,0,0,20,4,15.75,15.75,0,0,0,5.289,14.4ZM33.031,25.6a14.309,14.309,0,0,1-9.012,8.2,17.846,17.846,0,0,0,3.36-8.2h-1.61c-.875,4.575-2.767,8-4.982,8.669V25.6H19.214v8.669C17,33.6,15.107,30.175,14.231,25.6h-1.61a17.846,17.846,0,0,0,3.36,8.2,14.309,14.309,0,0,1-9.012-8.2H5.289A15.75,15.75,0,0,0,20,36,15.75,15.75,0,0,0,34.711,25.6Z" fill="#2196f3"/>
  </g>
</svg>
