<svg xmlns="http://www.w3.org/2000/svg" width="27" height="27.12" viewBox="0 0 27 27.12">
  <g id="icons8_whatsapp" transform="translate(-2 -2)">
    <path id="Path_39" data-name="Path 39" d="M4.556,22.453l-.037-.064A13.26,13.26,0,1,1,9.67,27.418l-.062-.034-6.9,1.809Z" transform="translate(-0.458 -0.322)" fill="#f2faff"/>
    <path id="Path_40" data-name="Path 40" d="M15.556,2.355h0A13.088,13.088,0,1,1,9.3,26.94l-.124-.068-.136.036L2.505,28.621,4.25,22.25l.039-.143-.074-.129A13.09,13.09,0,0,1,15.556,2.355m0-.355A13.446,13.446,0,0,0,3.907,22.156L2,29.12l7.127-1.869a13.433,13.433,0,0,0,6.425,1.636h.006A13.444,13.444,0,0,0,15.556,2Z" fill="#788b9c"/>
    <path id="Path_41" data-name="Path 41" d="M20.654,31.316a10.671,10.671,0,0,1-5.092-1.3l-1.019-.556-1.122.294-2.3.6.589-2.153.322-1.177-.61-1.057a10.659,10.659,0,1,1,9.234,5.34Z" transform="translate(-5.158 -5.158)" fill="#79ba7e"/>
    <path id="Path_42" data-name="Path 42" d="M34.2,31.809c-.32-.16-1.89-.933-2.182-1.039s-.506-.16-.719.16-.825,1.039-1.011,1.252-.372.239-.692.08a8.713,8.713,0,0,1-2.569-1.585,9.582,9.582,0,0,1-1.777-2.212c-.186-.32-.02-.492.14-.652.143-.143.32-.373.479-.56a2.194,2.194,0,0,0,.32-.533.586.586,0,0,0-.027-.56c-.08-.16-.719-1.732-.985-2.371-.259-.622-.523-.538-.719-.548s-.4-.011-.612-.011a1.173,1.173,0,0,0-.852.4A3.583,3.583,0,0,0,21.877,26.3a6.211,6.211,0,0,0,1.3,3.3,14.231,14.231,0,0,0,5.457,4.821,18.755,18.755,0,0,0,1.821.673,4.377,4.377,0,0,0,2.012.126A3.287,3.287,0,0,0,34.626,33.7a2.66,2.66,0,0,0,.186-1.518C34.731,32.049,34.519,31.969,34.2,31.809Z" transform="translate(-12.815 -13.689)" fill="#fff"/>
  </g>
</svg>
